<svg width="16" height="20" viewBox="0 0 16 20" fill="none" xmlns="http://www.w3.org/2000/svg">
<path d="M8.18598 12.552C7.56898 12.552 7.20898 13.139 7.20898 13.925C7.20898 14.716 7.57999 15.275 8.19199 15.275C8.80899 15.275 9.16298 14.687 9.16298 13.901C9.16298 13.175 8.81498 12.552 8.18598 12.552Z" fill="#5667FF"/>
<path d="M10 0H2C1.46957 0 0.960859 0.210714 0.585786 0.585786C0.210714 0.960859 0 1.46957 0 2V18C0 18.5304 0.210714 19.0391 0.585786 19.4142C0.960859 19.7893 1.46957 20 2 20H14C14.5304 20 15.0391 19.7893 15.4142 19.4142C15.7893 19.0391 16 18.5304 16 18V6L10 0ZM5.155 15.454C4.729 15.808 4.082 15.975 3.291 15.975C2.816 15.975 2.481 15.945 2.253 15.915V11.944C2.66197 11.8851 3.07483 11.8574 3.488 11.861C4.256 11.861 4.754 11.999 5.143 12.293C5.563 12.605 5.827 13.103 5.827 13.815C5.827 14.59 5.545 15.124 5.155 15.454ZM8.145 16C6.945 16 6.244 15.094 6.244 13.942C6.244 12.731 7.017 11.826 8.211 11.826C9.452 11.826 10.13 12.755 10.13 13.871C10.129 15.196 9.325 16 8.145 16ZM12.8 15.238C13.075 15.238 13.381 15.177 13.562 15.106L13.7 15.819C13.532 15.903 13.154 15.993 12.663 15.993C11.266 15.993 10.546 15.124 10.546 13.972C10.546 12.593 11.529 11.826 12.753 11.826C13.227 11.826 13.586 11.922 13.748 12.006L13.562 12.732C13.3185 12.6314 13.0574 12.5804 12.794 12.582C12.068 12.582 11.504 13.02 11.504 13.92C11.504 14.729 11.984 15.238 12.8 15.238ZM10 7H9V2L14 7H10Z" fill="#5667FF"/>
<path d="M3.58402 12.563C3.38102 12.563 3.24902 12.581 3.17102 12.599V15.244C3.24902 15.262 3.37502 15.262 3.48802 15.262C4.31602 15.268 4.85502 14.813 4.85502 13.847C4.86102 13.007 4.37002 12.563 3.58402 12.563Z" fill="#5667FF"/>
</svg>
