<svg width="16" height="15" viewBox="0 0 16 15" fill="none" xmlns="http://www.w3.org/2000/svg">
<path d="M15.7926 7.74299L8.59343 0.237547C8.29026 -0.0791824 7.70793 -0.0791824 7.40476 0.237547L0.205564 7.74299C0.101941 7.85076 0.033923 7.98447 0.00978135 8.12784C-0.0143603 8.27121 0.00641428 8.41807 0.0695792 8.55057C0.197565 8.82152 0.483933 8.99565 0.799898 8.99565H2.39972V14.2495C2.39972 14.4485 2.48399 14.6394 2.63401 14.7802C2.78402 14.9209 2.98748 15 3.19963 15H5.59936C5.81151 15 6.01497 14.9209 6.16498 14.7802C6.315 14.6394 6.39927 14.4485 6.39927 14.2495V11.2473H9.59891V14.2495C9.59891 14.4485 9.68319 14.6394 9.8332 14.7802C9.98322 14.9209 10.1867 15 10.3988 15H12.7986C13.0107 15 13.2142 14.9209 13.3642 14.7802C13.5142 14.6394 13.5985 14.4485 13.5985 14.2495V8.99565H15.1983C15.3532 8.99627 15.505 8.95458 15.6351 8.87567C15.7652 8.79676 15.868 8.68404 15.931 8.55124C15.994 8.41845 16.0145 8.27133 15.9899 8.12781C15.9653 7.98429 15.8968 7.85059 15.7926 7.74299Z" fill="#5667FF"/>
</svg>
